<mxfile host="app.diagrams.net" modified="2023-11-12T00:58:42.753Z" agent="Mozilla/5.0 (Windows NT 10.0; Win64; x64) AppleWebKit/537.36 (KHTML, like Gecko) Chrome/119.0.0.0 Safari/537.36" version="22.1.0" etag="3wImHshr35__3EQ27yV_" type="github">
  <diagram name="Страница — 1" id="Fjkt5Ak7snLljicHLIPz">
    <mxGraphModel>
      <root>
        <mxCell id="0" />
        <mxCell id="1" parent="0" />
      </root>
    </mxGraphModel>
  </diagram>
</mxfile>
